<svg id="visual" viewBox="0 0 900 600" width="900" height="600" xmlns="http://www.w3.org/2000/svg" xmlns:xlink="http://www.w3.org/1999/xlink" version="1.1"><path d="M0 187L13.7 173C27.3 159 54.7 131 82 138C109.3 145 136.7 187 163.8 204C191 221 218 213 245.2 196C272.3 179 299.7 153 327 157C354.3 161 381.7 195 409 198C436.3 201 463.7 173 491 161C518.3 149 545.7 153 573 155C600.3 157 627.7 157 654.8 151C682 145 709 133 736.2 142C763.3 151 790.7 181 818 199C845.3 217 872.7 223 886.3 226L900 229L900 0L886.3 0C872.7 0 845.3 0 818 0C790.7 0 763.3 0 736.2 0C709 0 682 0 654.8 0C627.7 0 600.3 0 573 0C545.7 0 518.3 0 491 0C463.7 0 436.3 0 409 0C381.7 0 354.3 0 327 0C299.7 0 272.3 0 245.2 0C218 0 191 0 163.8 0C136.7 0 109.3 0 82 0C54.7 0 27.3 0 13.7 0L0 0Z" fill="#414141"></path><path d="M0 367L13.7 357C27.3 347 54.7 327 82 325C109.3 323 136.7 339 163.8 344C191 349 218 343 245.2 353C272.3 363 299.7 389 327 396C354.3 403 381.7 391 409 372C436.3 353 463.7 327 491 324C518.3 321 545.7 341 573 335C600.3 329 627.7 297 654.8 290C682 283 709 301 736.2 312C763.3 323 790.7 327 818 325C845.3 323 872.7 315 886.3 311L900 307L900 227L886.3 224C872.7 221 845.3 215 818 197C790.7 179 763.3 149 736.2 140C709 131 682 143 654.8 149C627.7 155 600.3 155 573 153C545.7 151 518.3 147 491 159C463.7 171 436.3 199 409 196C381.7 193 354.3 159 327 155C299.7 151 272.3 177 245.2 194C218 211 191 219 163.8 202C136.7 185 109.3 143 82 136C54.7 129 27.3 157 13.7 171L0 185Z" fill="#616161"></path><path d="M0 445L13.7 433C27.3 421 54.7 397 82 390C109.3 383 136.7 393 163.8 404C191 415 218 427 245.2 443C272.3 459 299.7 479 327 478C354.3 477 381.7 455 409 439C436.3 423 463.7 413 491 418C518.3 423 545.7 443 573 433C600.3 423 627.7 383 654.8 366C682 349 709 355 736.2 364C763.3 373 790.7 385 818 392C845.3 399 872.7 401 886.3 402L900 403L900 305L886.3 309C872.7 313 845.3 321 818 323C790.7 325 763.3 321 736.2 310C709 299 682 281 654.8 288C627.7 295 600.3 327 573 333C545.7 339 518.3 319 491 322C463.7 325 436.3 351 409 370C381.7 389 354.3 401 327 394C299.7 387 272.3 361 245.2 351C218 341 191 347 163.8 342C136.7 337 109.3 321 82 323C54.7 325 27.3 345 13.7 355L0 365Z" fill="#7c7c7c"></path><path d="M0 547L13.7 532C27.3 517 54.7 487 82 485C109.3 483 136.7 509 163.8 525C191 541 218 547 245.2 548C272.3 549 299.7 545 327 543C354.3 541 381.7 541 409 529C436.3 517 463.7 493 491 491C518.3 489 545.7 509 573 508C600.3 507 627.7 485 654.8 478C682 471 709 479 736.2 485C763.3 491 790.7 495 818 492C845.3 489 872.7 479 886.3 474L900 469L900 401L886.3 400C872.7 399 845.3 397 818 390C790.7 383 763.3 371 736.2 362C709 353 682 347 654.8 364C627.7 381 600.3 421 573 431C545.7 441 518.3 421 491 416C463.7 411 436.3 421 409 437C381.7 453 354.3 475 327 476C299.7 477 272.3 457 245.2 441C218 425 191 413 163.8 402C136.7 391 109.3 381 82 388C54.7 395 27.3 419 13.7 431L0 443Z" fill="#616161"></path><path d="M0 601L13.7 601C27.3 601 54.7 601 82 601C109.3 601 136.7 601 163.8 601C191 601 218 601 245.2 601C272.3 601 299.7 601 327 601C354.3 601 381.7 601 409 601C436.3 601 463.7 601 491 601C518.3 601 545.7 601 573 601C600.3 601 627.7 601 654.8 601C682 601 709 601 736.2 601C763.3 601 790.7 601 818 601C845.3 601 872.7 601 886.3 601L900 601L900 467L886.3 472C872.7 477 845.3 487 818 490C790.7 493 763.3 489 736.2 483C709 477 682 469 654.8 476C627.7 483 600.3 505 573 506C545.7 507 518.3 487 491 489C463.7 491 436.3 515 409 527C381.7 539 354.3 539 327 541C299.7 543 272.3 547 245.2 546C218 545 191 539 163.8 523C136.7 507 109.3 481 82 483C54.7 485 27.3 515 13.7 530L0 545Z" fill="#414141"></path></svg>