<svg id="visual" viewBox="0 0 900 600" width="900" height="600" xmlns="http://www.w3.org/2000/svg" xmlns:xlink="http://www.w3.org/1999/xlink" version="1.1"><path d="M375 0L380.8 14.3C386.7 28.7 398.3 57.3 408.5 85.8C418.7 114.3 427.3 142.7 424.2 171.2C421 199.7 406 228.3 394 257C382 285.7 373 314.3 360 343C347 371.7 330 400.3 336 428.8C342 457.3 371 485.7 369.2 514.2C367.3 542.7 334.7 571.3 318.3 585.7L302 600L0 600L0 585.7C0 571.3 0 542.7 0 514.2C0 485.7 0 457.3 0 428.8C0 400.3 0 371.7 0 343C0 314.3 0 285.7 0 257C0 228.3 0 199.7 0 171.2C0 142.7 0 114.3 0 85.8C0 57.3 0 28.7 0 14.3L0 0Z" fill="#1b1b1b"></path><path d="M311 0L311.8 14.3C312.7 28.7 314.3 57.3 317.2 85.8C320 114.3 324 142.7 322.2 171.2C320.3 199.7 312.7 228.3 300.3 257C288 285.7 271 314.3 262.7 343C254.3 371.7 254.7 400.3 261.3 428.8C268 457.3 281 485.7 279.7 514.2C278.3 542.7 262.7 571.3 254.8 585.7L247 600L0 600L0 585.7C0 571.3 0 542.7 0 514.2C0 485.7 0 457.3 0 428.8C0 400.3 0 371.7 0 343C0 314.3 0 285.7 0 257C0 228.3 0 199.7 0 171.2C0 142.7 0 114.3 0 85.8C0 57.3 0 28.7 0 14.3L0 0Z" fill="#151515"></path><path d="M196 0L189.2 14.3C182.3 28.7 168.7 57.3 173.8 85.8C179 114.3 203 142.7 217.5 171.2C232 199.7 237 228.3 236.7 257C236.3 285.7 230.7 314.3 224.8 343C219 371.7 213 400.3 200.5 428.8C188 457.3 169 485.7 160.8 514.2C152.7 542.7 155.3 571.3 156.7 585.7L158 600L0 600L0 585.7C0 571.3 0 542.7 0 514.2C0 485.7 0 457.3 0 428.8C0 400.3 0 371.7 0 343C0 314.3 0 285.7 0 257C0 228.3 0 199.7 0 171.2C0 142.7 0 114.3 0 85.8C0 57.3 0 28.7 0 14.3L0 0Z" fill="#0c0c0c"></path><path d="M127 0L119.7 14.3C112.3 28.7 97.7 57.3 100.3 85.8C103 114.3 123 142.7 129.5 171.2C136 199.7 129 228.3 122 257C115 285.7 108 314.3 113 343C118 371.7 135 400.3 141.5 428.8C148 457.3 144 485.7 135.3 514.2C126.7 542.7 113.3 571.3 106.7 585.7L100 600L0 600L0 585.7C0 571.3 0 542.7 0 514.2C0 485.7 0 457.3 0 428.8C0 400.3 0 371.7 0 343C0 314.3 0 285.7 0 257C0 228.3 0 199.7 0 171.2C0 142.7 0 114.3 0 85.8C0 57.3 0 28.7 0 14.3L0 0Z" fill="#000000"></path></svg>