<svg xmlns="http://www.w3.org/2000/svg" viewBox="0 0 684 289"><path fill="white" d="M513.5 212h66.22a2.28 2.28 0 0 0 2.28-2.28V173.5a.5.5 0 0 1 .5-.5h53.99a.51.5 0 0 1 .51.5q.01 26.89 0 54c-.01 19.61-10.33 32.87-30.01 35.86q-3.85.59-12.65.6-66.57.11-97.84.03c-6.45-.02-13.78-.95-19.57-3.57-17.08-7.71-19.87-23.29-19.9-40.58q-.11-67.14.05-134.28c.05-20.94-1.61-42.85 20.2-52.31 6.33-2.74 13.86-3.22 21.81-3.22q50.96-.06 101.91-.02c14.04.01 26.39 6.31 32.36 18.54 3.79 7.79 3.76 16.19 3.71 25.26q-.14 23.31-.05 46.44 0 .75-.75.75H582.5a.5.5 0 0 1-.5-.5v-38a.5.5 0 0 0-.5-.5h-68a.5.5 0 0 0-.5.5v129q0 .5.5.5ZM92.5 212h66q2.49 0 2.49-2.5l.01-177a.5.5 0 0 1 .5-.5h53.99a.5.5 0 0 1 .5.5q.04 93.74-.02 187.68-.01 14.37-1.57 19.85c-5.6 19.55-22.66 23.92-41.7 23.94q-49.22.07-98.45-.07c-18.39-.05-34.01-8.77-36.99-28.16-.79-5.15-1.21-10.98-1.23-16.76q-.07-25.25-.02-50.48a.5.5 0 0 1 .5-.5H91.5q.5 0 .5.5v43q0 .5.5.5ZM338.93 180.51a.41.41 0 0 0 .78 0l47.57-147.05a2.12 2.11-80.9 0 1 2.01-1.46h57.02a.26.26 0 0 1 .25.35L372.1 261.14a1.23 1.22-80.7 0 1-1.16.84l-63.49.05q-.74.01-.98-.7L232.25 33.02a.78.77-9.2 0 1 .74-1.02h57.27q.52 0 .68.48l47.99 148.03Z"/></svg>