<svg id="visual" viewBox="0 0 900 600" width="900" height="600" xmlns="http://www.w3.org/2000/svg" xmlns:xlink="http://www.w3.org/1999/xlink" version="1.1"><g stroke-width="1" stroke-linejoin="bevel"><path d="M485 282L566 261L493 228Z" fill="#3a3a3a" stroke="#3a3a3a"></path><path d="M566 261L571 166L493 228Z" fill="#0a0a0a" stroke="#0a0a0a"></path><path d="M485 282L570 372L566 261Z" fill="#404040" stroke="#404040"></path><path d="M566 261L706 200L571 166Z" fill="#0a0a0a" stroke="#0a0a0a"></path><path d="M571 166L481 133L493 228Z" fill="#292929" stroke="#292929"></path><path d="M493 228L364 223L485 282Z" fill="#1d1d1d" stroke="#1d1d1d"></path><path d="M570 372L679 289L566 261Z" fill="#3a3a3a" stroke="#3a3a3a"></path><path d="M481 133L364 223L493 228Z" fill="#343434" stroke="#343434"></path><path d="M485 282L474 420L570 372Z" fill="#404040" stroke="#404040"></path><path d="M364 223L361 295L485 282Z" fill="#0a0a0a" stroke="#0a0a0a"></path><path d="M369 390L474 420L485 282Z" fill="#000000" stroke="#000000"></path><path d="M706 200L636 105L571 166Z" fill="#343434" stroke="#343434"></path><path d="M571 166L579 0L481 133Z" fill="#343434" stroke="#343434"></path><path d="M679 289L706 200L566 261Z" fill="#232323" stroke="#232323"></path><path d="M373 85L327 215L364 223Z" fill="#404040" stroke="#404040"></path><path d="M364 223L327 215L361 295Z" fill="#000000" stroke="#000000"></path><path d="M361 295L369 390L485 282Z" fill="#232323" stroke="#232323"></path><path d="M306 301L369 390L361 295Z" fill="#1d1d1d" stroke="#1d1d1d"></path><path d="M327 215L306 301L361 295Z" fill="#121212" stroke="#121212"></path><path d="M378 469L466 482L474 420Z" fill="#3a3a3a" stroke="#3a3a3a"></path><path d="M474 420L630 505L570 372Z" fill="#000000" stroke="#000000"></path><path d="M570 372L719 384L679 289Z" fill="#3a3a3a" stroke="#3a3a3a"></path><path d="M414 0L373 85L481 133Z" fill="#181818" stroke="#181818"></path><path d="M481 133L373 85L364 223Z" fill="#2e2e2e" stroke="#2e2e2e"></path><path d="M630 505L719 384L570 372Z" fill="#1d1d1d" stroke="#1d1d1d"></path><path d="M834 322L783 165L706 200Z" fill="#292929" stroke="#292929"></path><path d="M706 200L728 127L636 105Z" fill="#292929" stroke="#292929"></path><path d="M783 165L728 127L706 200Z" fill="#2e2e2e" stroke="#2e2e2e"></path><path d="M369 390L378 469L474 420Z" fill="#181818" stroke="#181818"></path><path d="M287 372L378 469L369 390Z" fill="#1d1d1d" stroke="#1d1d1d"></path><path d="M184 311L287 372L306 301Z" fill="#404040" stroke="#404040"></path><path d="M306 301L287 372L369 390Z" fill="#181818" stroke="#181818"></path><path d="M579 0L484 0L481 133Z" fill="#3a3a3a" stroke="#3a3a3a"></path><path d="M579 0L571 166L636 105Z" fill="#404040" stroke="#404040"></path><path d="M710 0L579 0L636 105Z" fill="#404040" stroke="#404040"></path><path d="M466 482L630 505L474 420Z" fill="#2e2e2e" stroke="#2e2e2e"></path><path d="M834 322L706 200L679 289Z" fill="#343434" stroke="#343434"></path><path d="M728 127L710 0L636 105Z" fill="#121212" stroke="#121212"></path><path d="M484 0L414 0L481 133Z" fill="#343434" stroke="#343434"></path><path d="M630 505L688 495L719 384Z" fill="#1d1d1d" stroke="#1d1d1d"></path><path d="M719 384L834 322L679 289Z" fill="#0a0a0a" stroke="#0a0a0a"></path><path d="M783 165L796 111L728 127Z" fill="#343434" stroke="#343434"></path><path d="M373 85L274 65L327 215Z" fill="#3a3a3a" stroke="#3a3a3a"></path><path d="M327 215L194 168L306 301Z" fill="#1d1d1d" stroke="#1d1d1d"></path><path d="M260 0L274 65L373 85Z" fill="#3a3a3a" stroke="#3a3a3a"></path><path d="M832 414L834 322L719 384Z" fill="#000000" stroke="#000000"></path><path d="M783 165L900 203L796 111Z" fill="#343434" stroke="#343434"></path><path d="M774 0L710 0L728 127Z" fill="#3a3a3a" stroke="#3a3a3a"></path><path d="M396 600L465 600L466 482Z" fill="#000000" stroke="#000000"></path><path d="M466 482L465 600L630 505Z" fill="#1d1d1d" stroke="#1d1d1d"></path><path d="M287 372L317 522L378 469Z" fill="#181818" stroke="#181818"></path><path d="M201 115L194 168L327 215Z" fill="#404040" stroke="#404040"></path><path d="M287 372L191 495L317 522Z" fill="#292929" stroke="#292929"></path><path d="M194 168L184 311L306 301Z" fill="#232323" stroke="#232323"></path><path d="M735 600L760 507L688 495Z" fill="#343434" stroke="#343434"></path><path d="M688 495L760 507L719 384Z" fill="#292929" stroke="#292929"></path><path d="M624 600L688 495L630 505Z" fill="#0a0a0a" stroke="#0a0a0a"></path><path d="M396 600L466 482L378 469Z" fill="#292929" stroke="#292929"></path><path d="M760 507L832 414L719 384Z" fill="#000000" stroke="#000000"></path><path d="M184 311L185 360L287 372Z" fill="#232323" stroke="#232323"></path><path d="M274 65L201 115L327 215Z" fill="#232323" stroke="#232323"></path><path d="M465 600L624 600L630 505Z" fill="#292929" stroke="#292929"></path><path d="M796 111L774 0L728 127Z" fill="#1d1d1d" stroke="#1d1d1d"></path><path d="M317 522L396 600L378 469Z" fill="#181818" stroke="#181818"></path><path d="M414 0L260 0L373 85Z" fill="#3a3a3a" stroke="#3a3a3a"></path><path d="M274 65L178 0L201 115Z" fill="#0a0a0a" stroke="#0a0a0a"></path><path d="M900 416L900 293L834 322Z" fill="#181818" stroke="#181818"></path><path d="M834 322L900 203L783 165Z" fill="#3a3a3a" stroke="#3a3a3a"></path><path d="M796 111L900 82L774 0Z" fill="#2e2e2e" stroke="#2e2e2e"></path><path d="M900 293L900 203L834 322Z" fill="#181818" stroke="#181818"></path><path d="M187 600L330 600L317 522Z" fill="#0a0a0a" stroke="#0a0a0a"></path><path d="M317 522L330 600L396 600Z" fill="#292929" stroke="#292929"></path><path d="M93 111L131 179L201 115Z" fill="#000000" stroke="#000000"></path><path d="M201 115L131 179L194 168Z" fill="#3a3a3a" stroke="#3a3a3a"></path><path d="M194 168L131 179L184 311Z" fill="#000000" stroke="#000000"></path><path d="M184 311L113 318L185 360Z" fill="#000000" stroke="#000000"></path><path d="M900 512L900 416L832 414Z" fill="#000000" stroke="#000000"></path><path d="M832 414L900 416L834 322Z" fill="#121212" stroke="#121212"></path><path d="M624 600L735 600L688 495Z" fill="#121212" stroke="#121212"></path><path d="M138 504L191 495L185 360Z" fill="#343434" stroke="#343434"></path><path d="M185 360L191 495L287 372Z" fill="#121212" stroke="#121212"></path><path d="M900 512L832 414L760 507Z" fill="#181818" stroke="#181818"></path><path d="M131 179L113 318L184 311Z" fill="#000000" stroke="#000000"></path><path d="M900 203L900 82L796 111Z" fill="#3a3a3a" stroke="#3a3a3a"></path><path d="M735 600L774 600L760 507Z" fill="#1d1d1d" stroke="#1d1d1d"></path><path d="M260 0L178 0L274 65Z" fill="#343434" stroke="#343434"></path><path d="M774 600L900 512L760 507Z" fill="#404040" stroke="#404040"></path><path d="M178 0L93 111L201 115Z" fill="#1d1d1d" stroke="#1d1d1d"></path><path d="M131 179L0 227L113 318Z" fill="#404040" stroke="#404040"></path><path d="M69 437L138 504L185 360Z" fill="#181818" stroke="#181818"></path><path d="M191 495L187 600L317 522Z" fill="#404040" stroke="#404040"></path><path d="M900 82L900 0L774 0Z" fill="#3a3a3a" stroke="#3a3a3a"></path><path d="M138 504L187 600L191 495Z" fill="#181818" stroke="#181818"></path><path d="M113 318L69 437L185 360Z" fill="#121212" stroke="#121212"></path><path d="M138 504L121 600L187 600Z" fill="#181818" stroke="#181818"></path><path d="M0 360L69 437L113 318Z" fill="#000000" stroke="#000000"></path><path d="M178 0L101 0L93 111Z" fill="#3a3a3a" stroke="#3a3a3a"></path><path d="M93 111L0 227L131 179Z" fill="#181818" stroke="#181818"></path><path d="M774 600L900 600L900 512Z" fill="#1d1d1d" stroke="#1d1d1d"></path><path d="M0 118L0 227L93 111Z" fill="#121212" stroke="#121212"></path><path d="M0 227L0 306L113 318Z" fill="#2e2e2e" stroke="#2e2e2e"></path><path d="M0 600L121 600L138 504Z" fill="#121212" stroke="#121212"></path><path d="M0 475L138 504L69 437Z" fill="#292929" stroke="#292929"></path><path d="M0 306L0 360L113 318Z" fill="#292929" stroke="#292929"></path><path d="M0 0L0 118L93 111Z" fill="#3a3a3a" stroke="#3a3a3a"></path><path d="M0 360L0 475L69 437Z" fill="#181818" stroke="#181818"></path><path d="M101 0L0 0L93 111Z" fill="#0a0a0a" stroke="#0a0a0a"></path><path d="M0 475L0 600L138 504Z" fill="#2e2e2e" stroke="#2e2e2e"></path></g></svg>